<svg xmlns="http://www.w3.org/2000/svg" viewBox="0 0 64 64" width="256" height="256"><defs>
<linearGradient id="gBlue" x1="0" y1="0" x2="0.4" y2="1"><stop offset="0" stop-color="#8FB3FF"/><stop offset="1" stop-color="#3D5AFE"/></linearGradient>
<linearGradient id="gViolet" x1="0" y1="0" x2="0.4" y2="1"><stop offset="0" stop-color="#D4B8FF"/><stop offset="1" stop-color="#7C5CFF"/></linearGradient>
<linearGradient id="gTeal" x1="0" y1="0" x2="0.4" y2="1"><stop offset="0" stop-color="#8FF5DF"/><stop offset="1" stop-color="#1FAE9F"/></linearGradient>
<linearGradient id="gSun" x1="0" y1="0" x2="0.4" y2="1"><stop offset="0" stop-color="#FFE7A0"/><stop offset="1" stop-color="#FFB547"/></linearGradient>
<linearGradient id="gFrost" x1="0" y1="0" x2="0.3" y2="1"><stop offset="0" stop-color="#FFFFFF" stop-opacity="0.88"/><stop offset="1" stop-color="#DCD6FF" stop-opacity="0.42"/></linearGradient>
<linearGradient id="gDot" x1="0" y1="0" x2="0" y2="1"><stop offset="0" stop-color="#A9FFF0"/><stop offset="1" stop-color="#2BC4B4"/></linearGradient>
</defs><path d="M32 7a4 4 0 0 1 2.6 1l21 18a3.5 3.5 0 0 1-2.3 6.2H10.7A3.5 3.5 0 0 1 8.4 26l21-18A4 4 0 0 1 32 7z" fill="url(#gViolet)"/><path d="M22 28h20a8 8 0 0 1 8 8v10a8 8 0 0 1 -8 8h-20a8 8 0 0 1 -8 -8v-10a8 8 0 0 1 8 -8z" fill="url(#gFrost)" stroke="rgba(255,255,255,0.75)" stroke-width="0.8"/><path d="M30 38h4a3 3 0 0 1 3 3v10a3 3 0 0 1 -3 3h-4a3 3 0 0 1 -3 -3v-10a3 3 0 0 1 3 -3z" fill="url(#gBlue)"/></svg>
