<svg xmlns="http://www.w3.org/2000/svg" viewBox="0 0 64 64" width="256" height="256"><defs>
<linearGradient id="gBlue" x1="0" y1="0" x2="0.4" y2="1"><stop offset="0" stop-color="#8FB3FF"/><stop offset="1" stop-color="#3D5AFE"/></linearGradient>
<linearGradient id="gViolet" x1="0" y1="0" x2="0.4" y2="1"><stop offset="0" stop-color="#D4B8FF"/><stop offset="1" stop-color="#7C5CFF"/></linearGradient>
<linearGradient id="gTeal" x1="0" y1="0" x2="0.4" y2="1"><stop offset="0" stop-color="#8FF5DF"/><stop offset="1" stop-color="#1FAE9F"/></linearGradient>
<linearGradient id="gSun" x1="0" y1="0" x2="0.4" y2="1"><stop offset="0" stop-color="#FFE7A0"/><stop offset="1" stop-color="#FFB547"/></linearGradient>
<linearGradient id="gFrost" x1="0" y1="0" x2="0.3" y2="1"><stop offset="0" stop-color="#FFFFFF" stop-opacity="0.88"/><stop offset="1" stop-color="#DCD6FF" stop-opacity="0.42"/></linearGradient>
<linearGradient id="gDot" x1="0" y1="0" x2="0" y2="1"><stop offset="0" stop-color="#A9FFF0"/><stop offset="1" stop-color="#2BC4B4"/></linearGradient>
</defs><path d="M32.0 8.0L36.7 8.5L38.9 15.4L42.0 17.0L49.0 15.0L52.0 18.7L48.6 25.1L49.7 28.5L56.0 32.0L55.5 36.7L48.6 38.9L47.0 42.0L49.0 49.0L45.3 52.0L38.9 48.6L35.5 49.7L32.0 56.0L27.3 55.5L25.1 48.6L22.0 47.0L15.0 49.0L12.0 45.3L15.4 38.9L14.3 35.5L8.0 32.0L8.5 27.3L15.4 25.1L17.0 22.0L15.0 15.0L18.7 12.0L25.1 15.4L28.5 14.3z" fill="url(#gViolet)"/><path d="M22 32a10 10 0 1 0 20 0a10 10 0 1 0 -20 0z" fill="url(#gFrost)" stroke="rgba(255,255,255,0.75)" stroke-width="0.8"/><path d="M26.5 32a5.5 5.5 0 1 0 11 0a5.5 5.5 0 1 0 -11 0z" fill="url(#gDot)"/></svg>
