<svg xmlns="http://www.w3.org/2000/svg" viewBox="0 0 64 64" width="256" height="256"><defs>
<linearGradient id="gBlue" x1="0" y1="0" x2="0.4" y2="1"><stop offset="0" stop-color="#8FB3FF"/><stop offset="1" stop-color="#3D5AFE"/></linearGradient>
<linearGradient id="gViolet" x1="0" y1="0" x2="0.4" y2="1"><stop offset="0" stop-color="#D4B8FF"/><stop offset="1" stop-color="#7C5CFF"/></linearGradient>
<linearGradient id="gTeal" x1="0" y1="0" x2="0.4" y2="1"><stop offset="0" stop-color="#8FF5DF"/><stop offset="1" stop-color="#1FAE9F"/></linearGradient>
<linearGradient id="gSun" x1="0" y1="0" x2="0.4" y2="1"><stop offset="0" stop-color="#FFE7A0"/><stop offset="1" stop-color="#FFB547"/></linearGradient>
<linearGradient id="gFrost" x1="0" y1="0" x2="0.3" y2="1"><stop offset="0" stop-color="#FFFFFF" stop-opacity="0.88"/><stop offset="1" stop-color="#DCD6FF" stop-opacity="0.42"/></linearGradient>
<linearGradient id="gDot" x1="0" y1="0" x2="0" y2="1"><stop offset="0" stop-color="#A9FFF0"/><stop offset="1" stop-color="#2BC4B4"/></linearGradient>
</defs><path d="M18 13h28a11 11 0 0 1 11 11v16a11 11 0 0 1 -11 11h-28a11 11 0 0 1 -11 -11v-16a11 11 0 0 1 11 -11z" fill="url(#gViolet)"/><path d="M27 22.5c0-2 2.2-3.2 3.8-2.1l11 7.4c1.5 1 1.5 3.2 0 4.2l-11 7.4c-1.6 1.1-3.8-.1-3.8-2.1z" fill="url(#gFrost)" stroke="rgba(255,255,255,0.75)" stroke-width="0.8"/></svg>
